<svg width="24" height="16" viewBox="0 0 24 16" fill="none" xmlns="http://www.w3.org/2000/svg">
<path d="M11.9963 0.731445C9.49739 0.731265 8.11222 1.40594 7.43589 2.36009C6.75956 3.31405 6.84768 4.43351 7.00915 5.18302L7.0124 5.20053L9.5866 13.3821C9.75347 13.9122 10.1454 14.296 10.5869 14.5338C11.0285 14.7717 11.5267 14.8803 11.9965 14.8795C12.4653 14.8788 12.9645 14.7711 13.406 14.5338C13.8475 14.2966 14.2394 13.9155 14.4063 13.3852L16.9805 5.20039L16.983 5.18289C17.1447 4.43333 17.2326 3.31714 16.5565 2.36318C15.8801 1.40904 14.4957 0.731676 11.9968 0.731492L11.9963 0.731445ZM17.877 3.68234C17.9458 4.31785 17.8703 4.90804 17.7743 5.35264L17.7679 5.39126L15.1764 13.6264C15.1397 13.7428 15.0939 13.8521 15.0437 13.9578C15.5408 14.1165 15.9876 14.1733 16.3947 14.1181C16.909 14.0484 17.3423 13.7974 17.6872 13.4526L21.2617 9.88143L21.2649 9.87837C21.8586 9.25949 22.1061 8.49819 22.0195 7.76434C21.9329 7.0303 21.5336 6.33599 20.9213 5.76547C20.0578 4.96126 19.0364 4.24796 17.877 3.68211L17.877 3.68234ZM6.11416 3.68306C4.95512 4.24854 3.93385 4.96073 3.0706 5.76475C2.45803 6.33532 2.05891 7.02963 1.97241 7.76348C1.8859 8.49752 2.13332 9.25858 2.72691 9.87751L2.73017 9.88058L6.30465 13.4518C6.64977 13.7966 7.08302 14.0476 7.59716 14.1172C8.00459 14.1724 8.4514 14.1142 8.94909 13.9561C8.8987 13.85 8.85229 13.7399 8.81563 13.623L6.22408 5.39111L6.21776 5.3525C6.12187 4.9079 6.04583 4.3184 6.11428 3.68288L6.11416 3.68306ZM1.75044 9.9444C1.27042 10.7896 0.945543 11.6176 0.784978 12.3552C0.673734 12.8662 0.637794 13.335 0.696486 13.7493C0.755177 14.1636 0.914281 14.5414 1.2251 14.7897C1.60995 15.0971 2.05044 15.2491 2.49163 15.2594C2.93283 15.27 3.36824 15.1516 3.808 14.9696C4.3964 14.726 5.01961 14.3543 5.66866 13.9591L2.15825 10.4518L2.14886 10.4426L2.14345 10.4364C1.995 10.2818 1.86695 10.116 1.75083 9.94456L1.75044 9.9444ZM22.241 9.94512C22.1249 10.1164 21.9974 10.2824 21.8491 10.437L21.8437 10.4431L21.8343 10.4523L18.3239 13.9597C18.9726 14.3545 19.5957 14.726 20.1838 14.9694C20.6234 15.1513 21.059 15.2695 21.5002 15.2592C21.9414 15.2485 22.382 15.097 22.7667 14.7895C23.0773 14.5412 23.2359 14.1632 23.2946 13.7491C23.3533 13.335 23.3188 12.8666 23.2077 12.3558C23.0472 11.6181 22.7217 10.7903 22.2414 9.94495L22.241 9.94512Z" fill="white"/>
</svg>
