<svg width="20" height="22" viewBox="0 0 20 22" fill="none" xmlns="http://www.w3.org/2000/svg">
<path d="M7.95428 10.4626C7.95428 10.4626 9.34933 8.95504 10.0244 8.16745C10.4744 6.7724 10.1144 5.12967 8.96685 4.02718L5.32149 0.449493C5.14146 0.269461 4.87151 0.269461 4.66903 0.427048C4.44395 0.60708 4.44395 0.92208 4.62399 1.12455L8.08913 4.72486C8.2916 4.92734 8.26916 5.24236 8.04408 5.42237L7.99903 5.46741C7.79656 5.625 7.504 5.625 7.32395 5.42237L3.90401 1.66463C3.72398 1.4846 3.4314 1.46215 3.22893 1.61958L3.20648 1.64202C3.00401 1.82206 2.98141 2.11464 3.13899 2.33953L6.42428 6.14231C6.60431 6.34479 6.58187 6.65981 6.37924 6.8174L6.33419 6.86244C6.13171 7.04247 5.8167 6.99743 5.63668 6.79495L2.46394 2.9247C2.28391 2.72223 1.99133 2.67718 1.76644 2.85721L1.74399 2.87966C1.54151 3.03724 1.51891 3.32964 1.6765 3.55474L4.78174 7.5825C4.93932 7.78497 4.91672 8.07753 4.71425 8.23496L4.6466 8.30261C4.42152 8.48264 4.10652 8.43759 3.94909 8.21267L1.02387 4.18491C0.866279 3.95983 0.528834 3.91494 0.326361 4.09497C0.146329 4.25256 0.101282 4.52254 0.236424 4.74744L3.16165 9.09021C4.24152 10.6877 6.28902 11.2052 7.95428 10.4626Z" fill="#35B8FC"/>
<path d="M13.1296 12.6453C12.8371 13.0502 12.522 13.5004 12.207 13.9728C12.0481 14.2111 11.8814 14.4495 11.7115 14.6925C11.5927 14.8623 11.4723 15.0345 11.3519 15.2104C12.1169 16.268 12.972 17.3931 14.007 18.6307C17.0674 22.2534 18.0802 21.8485 18.5752 21.4209C19.0702 20.9933 19.6552 20.0707 16.6176 16.4256C15.3574 14.9405 14.1872 13.7255 13.1296 12.6453Z" fill="#35B8FC"/>
<path d="M15.8298 11.5202C15.4697 12.1052 14.6597 12.1727 14.2097 11.6552L13.0846 10.3276C12.4049 11.1796 11.7434 12.1337 11.009 13.193C9.92003 14.7636 8.67081 16.5655 6.96421 18.6082C3.90401 22.2533 2.89145 21.8484 2.39642 21.4208C1.87876 20.9933 1.29381 20.0707 4.354 16.4255C4.97267 15.681 5.96273 14.6385 7.11693 13.4231C8.43951 12.0304 9.97761 10.4108 11.4195 8.75252C14.8622 4.74727 17.9224 0.629504 17.9224 0.629504C18.2149 0.247008 18.7999 0.292051 19.0474 0.696997C20.1275 2.49711 20.06 4.76984 18.9125 6.54737L15.8298 11.5202Z" fill="#35B8FC"/>
</svg>
