<svg width="20" height="21" viewBox="0 0 20 21" fill="none" xmlns="http://www.w3.org/2000/svg">
<path d="M17 18.9999H3V19.9999C3 20.2651 2.89464 20.5195 2.70711 20.707C2.51957 20.8946 2.26522 20.9999 2 20.9999H1C0.734784 20.9999 0.48043 20.8946 0.292893 20.707C0.105357 20.5195 0 20.2651 0 19.9999V12.9385C0 11.67 0.34471 10.4253 0.997286 9.33751L2.417 6.97093C2.59469 6.67478 2.84605 6.42968 3.1466 6.25952C3.44714 6.08936 3.78663 5.99993 4.132 5.99993H15.868C16.2134 5.99993 16.5529 6.08936 16.8534 6.25952C17.1539 6.42968 17.4053 6.67478 17.583 6.97093L19.0027 9.33751C19.6553 10.4253 20 11.67 20 12.9385V19.9999C20 20.2651 19.8946 20.5195 19.7071 20.707C19.5196 20.8946 19.2652 20.9999 19 20.9999H18C17.7348 20.9999 17.4804 20.8946 17.2929 20.707C17.1054 20.5195 17 20.2651 17 19.9999V18.9999ZM3.2407 9.48543C2.84078 10.152 3.3209 10.9999 4.09819 10.9999H15.9018C16.6791 10.9999 17.1592 10.152 16.7593 9.48543L16.1593 8.48543C15.9786 8.18423 15.6531 7.99993 15.3018 7.99993H4.69819C4.34693 7.99993 4.02142 8.18423 3.8407 8.48543L3.2407 9.48543ZM4.5 15.9999C4.89782 15.9999 5.27936 15.8419 5.56066 15.5606C5.84196 15.2793 6 14.8978 6 14.4999C6 14.1021 5.84196 13.7206 5.56066 13.4393C5.27936 13.158 4.89782 12.9999 4.5 12.9999C4.10218 12.9999 3.72064 13.158 3.43934 13.4393C3.15804 13.7206 3 14.1021 3 14.4999C3 14.8978 3.15804 15.2793 3.43934 15.5606C3.72064 15.8419 4.10218 15.9999 4.5 15.9999ZM15.5 15.9999C15.8978 15.9999 16.2794 15.8419 16.5607 15.5606C16.842 15.2793 17 14.8978 17 14.4999C17 14.1021 16.842 13.7206 16.5607 13.4393C16.2794 13.158 15.8978 12.9999 15.5 12.9999C15.1022 12.9999 14.7206 13.158 14.4393 13.4393C14.158 13.7206 14 14.1021 14 14.4999C14 14.8978 14.158 15.2793 14.4393 15.5606C14.7206 15.8419 15.1022 15.9999 15.5 15.9999ZM3.44 1.43993L4.5 0.37793L5.56 1.43793C5.76982 1.64769 5.91273 1.91496 5.97064 2.20595C6.02856 2.49693 5.99888 2.79856 5.88536 3.07267C5.77184 3.34679 5.57959 3.58108 5.3329 3.74592C5.08622 3.91076 4.79619 3.99875 4.4995 3.99875C4.20281 3.99875 3.91278 3.91076 3.6661 3.74592C3.41941 3.58108 3.22716 3.34679 3.11364 3.07267C3.00012 2.79856 2.97044 2.49693 3.02836 2.20595C3.08627 1.91496 3.22918 1.64769 3.439 1.43793L3.44 1.43993ZM8.94 1.43993L10 0.37793L11.06 1.43793C11.2698 1.64769 11.4127 1.91496 11.4706 2.20595C11.5286 2.49693 11.4989 2.79856 11.3854 3.07267C11.2718 3.34679 11.0796 3.58108 10.8329 3.74592C10.5862 3.91076 10.2962 3.99875 9.9995 3.99875C9.70281 3.99875 9.41278 3.91076 9.1661 3.74592C8.91941 3.58108 8.72716 3.34679 8.61364 3.07267C8.50012 2.79856 8.47044 2.49693 8.52836 2.20595C8.58627 1.91496 8.72918 1.64769 8.939 1.43793L8.94 1.43993ZM14.44 1.43993L15.5 0.37893L16.56 1.43893C16.7698 1.64869 16.9127 1.91596 16.9706 2.20695C17.0286 2.49793 16.9989 2.79956 16.8854 3.07367C16.7718 3.34779 16.5796 3.58208 16.3329 3.74692C16.0862 3.91176 15.7962 3.99975 15.4995 3.99975C15.2028 3.99975 14.9128 3.91176 14.6661 3.74692C14.4194 3.58208 14.2272 3.34779 14.1136 3.07367C14.0001 2.79956 13.9704 2.49793 14.0284 2.20695C14.0863 1.91596 14.2292 1.64869 14.439 1.43893L14.44 1.43993Z" fill="#35B8FC"/>
</svg>
