<svg width="20" height="20" viewBox="0 0 20 20" fill="none" xmlns="http://www.w3.org/2000/svg">
<path d="M15.5 9.27868e-07C16.4168 6.96194e-05 17.3118 0.280205 18.0651 0.802909C18.8184 1.32561 19.394 2.06594 19.7149 2.9248C20.0359 3.78366 20.0868 4.72006 19.8609 5.60867C19.635 6.49727 19.1431 7.29567 18.451 7.897C18.806 8.864 19 9.91 19 11C18.9992 12.3149 18.7104 13.6137 18.1538 14.8049C17.5971 15.9962 16.7863 17.051 15.7781 17.8952C14.77 18.7394 13.5892 19.3524 12.3187 19.6912C11.0482 20.0299 9.71888 20.0862 8.4243 19.856C7.12971 19.6258 5.9013 19.1147 4.82546 18.3587C3.74963 17.6027 2.85252 16.6202 2.19723 15.4802C1.54195 14.3402 1.14441 13.0705 1.03258 11.7604C0.92076 10.4503 1.09737 9.13154 1.54998 7.897C1.06007 7.47126 0.668047 6.94458 0.400818 6.3531C0.133589 5.76161 -0.00252694 5.11932 0.00180943 4.47028C0.0061458 3.82124 0.150831 3.18082 0.42594 2.59296C0.701049 2.0051 1.10007 1.4837 1.59563 1.06455C2.09118 0.645394 2.67155 0.338399 3.2969 0.164626C3.92226 -0.00914739 4.57781 -0.045586 5.21857 0.0578096C5.85933 0.161205 6.47015 0.401988 7.00911 0.763639C7.54806 1.12529 8.00241 1.59925 8.34098 2.153C9.43817 1.94827 10.5638 1.94827 11.661 2.153C12.0625 1.49502 12.6265 0.951382 13.2989 0.574334C13.9712 0.197286 14.7292 -0.000494339 15.5 9.27868e-07V9.27868e-07ZM7.99998 11H5.99998C5.99996 12.0436 6.40777 13.0458 7.13638 13.7929C7.86499 14.54 8.85672 14.9727 9.89995 14.9988C10.9432 15.0249 11.9553 14.6423 12.7204 13.9326C13.4854 13.2229 13.9428 12.2423 13.995 11.2L14 11H12C12.0023 11.519 11.8028 12.0185 11.4436 12.3932C11.0844 12.7678 10.5937 12.9881 10.075 13.0075C9.55642 13.027 9.05053 12.8441 8.66426 12.4975C8.27799 12.1509 8.04158 11.6677 8.00498 11.15L7.99998 11Z" fill="#35B8FC"/>
</svg>
