<svg width="18" height="14" viewBox="0 0 18 14" fill="none" xmlns="http://www.w3.org/2000/svg">
<path d="M0.152241 1.23463C0 1.60218 0 2.06812 0 3V9.2C0 10.8802 0 11.7202 0.32698 12.362C0.614601 12.9265 1.07354 13.3854 1.63803 13.673C2.27976 14 3.11984 14 4.8 14H13.2C14.8802 14 15.7202 14 16.362 13.673C16.9265 13.3854 17.3854 12.9265 17.673 12.362C18 11.7202 18 10.8802 18 9.2V7.8C18 6.11984 18 5.27976 17.673 4.63803C17.3854 4.07354 16.9265 3.6146 16.362 3.32698C15.7202 3 14.8802 3 13.2 3H10L8.17157 1.17157C7.59351 0.593512 7.30448 0.304482 6.93694 0.152241C6.5694 0 6.16065 0 5.34315 0H3C2.06812 0 1.60218 0 1.23463 0.152241C0.744577 0.355229 0.355229 0.744577 0.152241 1.23463Z" fill="#35B8FC"/>
</svg>
