<svg width="20" height="16" viewBox="0 0 20 16" fill="none" xmlns="http://www.w3.org/2000/svg">
<path d="M19 11C19 6.68281 15.9443 3.07052 11.8832 2.20215C11.385 2.09562 11 1.6736 11 1.16411V1C11 0.447716 10.5523 0 10 0C9.44772 0 9 0.447715 9 1V1.16411C9 1.67359 8.615 2.09562 8.11678 2.20215C4.05573 3.07052 1 6.68281 1 11V12C1 12.5523 1.44772 13 2 13H18C18.5523 13 19 12.5523 19 12V11Z" fill="white"/>
<path d="M0 15C0 14.4477 0.447715 14 1 14H19C19.5523 14 20 14.4477 20 15C20 15.5523 19.5523 16 19 16H1C0.447716 16 0 15.5523 0 15Z" fill="white"/>
</svg>
