<svg width="18" height="15" viewBox="0 0 18 15" fill="none" xmlns="http://www.w3.org/2000/svg">
<path d="M7 13H2C1.05719 13 0.585787 13 0.292893 12.7071C0 12.4142 0 11.9428 0 11V2C0 1.05719 0 0.585786 0.292893 0.292893C0.585787 0 1.05719 0 2 0H3C5.82843 0 7.24264 0 8.12132 0.87868C9 1.75736 9 3.17157 9 6C9 3.17157 9 1.75736 9.87868 0.87868C10.7574 0 12.1716 0 15 0H16C16.9428 0 17.4142 0 17.7071 0.292893C18 0.585786 18 1.05719 18 2V11C18 11.9428 18 12.4142 17.7071 12.7071C17.4142 13 16.9428 13 16 13H11C9.89543 13 9 13.8954 9 15C9 13.8954 8.10457 13 7 13Z" fill="#35B8FC"/>
</svg>
