<svg width="20" height="18" viewBox="0 0 20 18" fill="none" xmlns="http://www.w3.org/2000/svg">
<path d="M9 3C9 3.55228 9.44771 4 10 4C10.5523 4 11 3.55228 11 3V1C11 0.447715 10.5523 0 10 0C9.44771 0 9 0.447715 9 1V3Z" fill="#35B8FC"/>
<path fill-rule="evenodd" clip-rule="evenodd" d="M0 9V6H20V9C19.6248 9 19.4372 9 19.2724 9.02773C18.5879 9.14294 18.012 9.60488 17.751 10.2481C17.6882 10.403 17.6475 10.5861 17.5662 10.9522L16.6961 14.8677C16.3624 16.3694 16.1955 17.1202 15.6471 17.5601C15.0987 18 14.3296 18 12.7913 18H7.20869C5.67043 18 4.9013 18 4.35289 17.5601C3.80448 17.1202 3.63763 16.3694 3.30394 14.8677L2.43386 10.9524C2.35247 10.5861 2.31178 10.403 2.24896 10.2481C1.98799 9.60488 1.41213 9.14294 0.72757 9.02773C0.562772 9 0.375182 9 0 9ZM6.3356 10.0136C6.88037 9.92281 7.3956 10.2908 7.48639 10.8356L7.98639 13.8356C8.07719 14.3804 7.70917 14.8956 7.1644 14.9864C6.61963 15.0772 6.1044 14.7092 6.01361 14.1644L5.51361 11.1644C5.42281 10.6196 5.79083 10.1044 6.3356 10.0136ZM13.6643 10.0136C14.2091 10.1044 14.5771 10.6196 14.4863 11.1644L13.9863 14.1644C13.8955 14.7092 13.3803 15.0772 12.8355 14.9864C12.2907 14.8956 11.9227 14.3804 12.0135 13.8356L12.5135 10.8356C12.6043 10.2908 13.1195 9.92281 13.6643 10.0136Z" fill="#35B8FC"/>
</svg>
