<svg width="18" height="18" viewBox="0 0 18 18" fill="none" xmlns="http://www.w3.org/2000/svg">
<path d="M2.70937 3.78065L0 1.14871L1.18215 0L3.8907 2.63281H16.6248C16.755 2.6327 16.8835 2.66233 16.9998 2.71907C17.1161 2.77592 17.2173 2.85834 17.295 2.95986C17.3728 3.06137 17.425 3.17913 17.4476 3.30369C17.4703 3.42836 17.4626 3.55633 17.4251 3.6776L15.42 10.1723C15.3685 10.3396 15.2627 10.4863 15.1186 10.5905C14.9744 10.6948 14.7995 10.7512 14.6197 10.7511H4.38026V12.3748H13.5704V13.9985H3.54481C3.32326 13.9985 3.11081 13.913 2.95415 13.7606C2.79737 13.6084 2.70937 13.402 2.70937 13.1867V3.78065ZM3.96259 17.2458C3.63026 17.2458 3.31148 17.1176 3.07648 16.8892C2.84148 16.6608 2.70937 16.351 2.70937 16.0281C2.70937 15.7051 2.84148 15.3953 3.07648 15.1669C3.31148 14.9385 3.63026 14.8103 3.96259 14.8103C4.29492 14.8103 4.6137 14.9385 4.8487 15.1669C5.0837 15.3953 5.21581 15.7051 5.21581 16.0281C5.21581 16.351 5.0837 16.6608 4.8487 16.8892C4.6137 17.1176 4.29492 17.2458 3.96259 17.2458ZM13.9881 17.2458C13.6557 17.2458 13.3369 17.1176 13.1019 16.8892C12.8669 16.6608 12.7349 16.351 12.7349 16.0281C12.7349 15.7051 12.8669 15.3953 13.1019 15.1669C13.3369 14.9385 13.6557 14.8103 13.9881 14.8103C14.3205 14.8103 14.6393 14.9385 14.8743 15.1669C15.1093 15.3953 15.2413 15.7051 15.2413 16.0281C15.2413 16.351 15.1093 16.6608 14.8743 16.8892C14.6393 17.1176 14.3205 17.2458 13.9881 17.2458Z" fill="#35B8FC"/>
</svg>
